<?xml version="1.0" standalone="no"?>
<!DOCTYPE svg PUBLIC "-//W3C//DTD SVG 20010904//EN"
 "http://www.w3.org/TR/2001/REC-SVG-20010904/DTD/svg10.dtd">
<svg version="1.0" xmlns="http://www.w3.org/2000/svg"
 width="400.000000pt" height="400.000000pt" viewBox="0 0 400.000000 400.000000"
 preserveAspectRatio="xMidYMid meet">
<metadata>
Created by potrace 1.11, written by Peter Selinger 2001-2013
</metadata>
<g transform="translate(0.000000,400.000000) scale(0.100000,-0.100000)"
fill="#000000" stroke="none">
<path d="M1932 3708 c-37 -21 -74 -60 -262 -278 -30 -35 -73 -85 -95 -110 -22
-25 -63 -73 -91 -106 -140 -162 -343 -396 -393 -452 -76 -87 -101 -130 -101
-175 0 -42 12 -70 44 -105 36 -40 75 -50 202 -50 66 0 136 -1 157 -1 l38 -1
-71 -87 c-39 -49 -76 -95 -83 -103 -340 -424 -456 -571 -471 -600 -13 -23 -19
-55 -19 -92 1 -77 34 -135 100 -170 44 -24 59 -26 178 -28 71 0 130 -2 131 -3
2 -2 -93 -123 -134 -172 -18 -21 -101 -121 -157 -190 -318 -390 -313 -383
-322 -465 -11 -102 56 -212 145 -238 59 -18 2518 -17 2560 1 47 19 88 58 113
107 30 57 33 157 7 210 -15 29 -132 179 -257 326 -14 18 -39 49 -56 70 -16 21
-73 90 -125 154 -52 63 -110 134 -128 158 l-34 42 124 1 c139 1 163 4 195 24
88 58 123 177 78 264 -11 21 -358 463 -434 553 -6 7 -52 64 -102 126 l-90 112
43 0 c264 2 294 4 331 30 49 33 76 100 65 155 -8 38 -67 116 -201 265 -18 19
-57 64 -87 100 -30 36 -59 70 -65 76 -5 6 -35 39 -65 74 -30 35 -75 87 -100
115 -25 28 -112 130 -195 225 -186 216 -193 223 -232 244 -44 22 -92 20 -141
-6z"/>
</g>
</svg>
